PathFileType	4	(X/Y/Z)	pose_F01_0-90.trc
DataRate	CameraRate	NumFrames	NumMarkers	Units	OrigDataRate	OrigDataStartFrame	OrigNumFrames
30	30	9	21	m	30	56	90
Frame#	Time	CHip			RHip			RKnee			RAnkle			RBigToe			RSmallToe			RHeel			LHip			LKnee			LAnkle			LBigToe			LSmallToe			LHeel			Neck			Nose			RShoulder			RElbow			RWrist			LShoulder			LElbow			LWrist			
		X1	Y1	Z1	X2	Y2	Z2	X3	Y3	Z3	X4	Y4	Z4	X5	Y5	Z5	X6	Y6	Z6	X7	Y7	Z7	X8	Y8	Z8	X9	Y9	Z9	X10	Y10	Z10	X11	Y11	Z11	X12	Y12	Z12	X13	Y13	Z13	X14	Y14	Z14	X15	Y15	Z15	X16	Y16	Z16	X17	Y17	Z17	X18	Y18	Z18	X19	Y19	Z19	X20	Y20	Z20	X21	Y21	Z21	
56	1.8666666666666667	-0.1874301608415484	1.8293952023894693	-0.6404427184466358	-0.2050978752726	1.8254422069348437	-0.574579422172399	-0.22025442714538515	1.6906629110964808	-0.5430473174531768	-0.2011524547383302	1.5668265059215518	-0.4891698370392925	-0.24151813589566756	1.5265173219959016	-0.5045101073755103				-0.192881282958122	1.5579198698392034	-0.4840004844482865	-0.17162110435444203	1.8309409993337784	-0.7067353117160187	-0.16698545331126527	1.6933810014011714	-0.66794410607878	-0.15260716690262252	1.561108437411583	-0.6409990603566679	-0.20351856514277328	1.5266795679873582	-0.6531211574655975	-0.2980615062584175	1.480614151044173	-1.0817116411415568	-0.1392233087618818	1.5480682833514186	-0.6404131407166445	-0.17393860953693246	1.9880427192919246	-0.6499073168162908	-0.2092165749218455	2.0582846827174426	-0.6518632148689354	-1.7018912496249101	1.8871697547061799	1.0890359719093299	-0.20307619961331086	1.8813742994036964	-0.536838426203634	-0.2553597273582224	1.8203223359941163	-0.4257740215770207	-0.14973194239183724	1.999570412493202	-0.7411863775855836	-0.18294461344249033	1.9902678188696055	-0.7611316140117634	-1.171803278238426	1.886304034613359	0.23791963208415012
57	1.9	-0.19164802897032962	1.8275295632155408	-0.635606181848732	-0.20715381469435654	1.8240484213915524	-0.5720754212528963	-0.22220690155588707	1.6901274349729964	-0.5407726566478827	-0.20101478001210038	1.5633706849311824	-0.47967891284073405	-0.24151813589566756	1.5265173219959016	-0.5045101073755103				-0.19334851956851035	1.5525555423954422	-0.4783689345841989	-0.1748371053628053	1.8291118260676003	-0.6990161536155788	-0.16800316898892878	1.6930019318375633	-0.6630251104327125	-0.15154031282800492	1.5595000026519827	-0.6378846258467739	-0.20269593939485636	1.5269734390159504	-0.6499182291464233	-0.2981247780142978	1.4805743011104946	-1.0816700629295646	-0.13913258505058843	1.5471047170199246	-0.640524129133322	-0.17495170003747462	1.9859611466212763	-0.6438710520765487	-0.20896990124811513	2.0582508754641635	-0.6513446323283555	-1.6926847668290594	1.8870485299347322	1.072439103332115	-0.20382151450989366	1.8824085244228899	-0.5290004211409206	-0.2553597273582224	1.8203223359941163	-0.4257740215770207	-0.15071613355474867	1.993336940828679	-0.7223645560833171	-0.18564434290036777	1.961913265890037	-0.7600513678300425	-1.1610415292156004	1.8888533645498422	0.22116622731183727
58	1.9333333333333333	-0.19435797213862693	1.8257819615726987	-0.6244821445783821	-0.21148112070536018	1.8234453672742075	-0.5674384625571144	-0.22379306053584477	1.6878928992751743	-0.5344501936247055	-0.20966955081789576	1.5599118163677836	-0.47915800237431494	-0.24151813589566756	1.5265173219959016	-0.5045101073755103				-0.19626023195714482	1.5460052578919423	-0.47864299786175757	-0.1774748653088984	1.8266545279054192	-0.6960756851962653	-0.17093634257236198	1.6920090674404134	-0.6597756803177454	-0.15172779831415498	1.5609660783795651	-0.6377211501039619	-0.20593053402001657	1.5279672155882704	-0.6506819995566844	-0.30038165194239613	1.4811479561052476	-1.0780893156392637	-0.13899215771621978	1.5466853067278858	-0.6405397265585573	-0.1750505553416767	1.98752055160446	-0.6441478204207418	-0.20479654911894674	2.06182443721729	-0.6566304530448626	-1.701588783969755	1.8873696236427524	1.0884366868226538	-0.20456682940647647	1.8834427494420831	-0.5211624160782072	-0.2553597273582224	1.8203223359941163	-0.4257740215770207	-0.14994150618031216	1.997713189608617	-0.7199637059729337	-1.1369322647290208	1.862327217748658	0.19829941288307062	-0.19350080435085984	2.018640818003334	-0.7169746763429814
59	1.9666666666666666	-0.19802113456687354	1.8241204251661474	-0.616301780468759	-0.2167430415868971	1.8216781715156187	-0.5571898528939764	-0.222111102283901	1.6872921144375503	-0.5273745199398567	-0.20966955081789576	1.5599118163677836	-0.47915800237431494	-0.24151813589566756	1.5265173219959016	-0.5045101073755103				-0.19932927505031897	1.5461062615005943	-0.47991754346682325	-0.18241257614614567	1.8260500277997969	-0.6827573110874247	-0.1732169580453944	1.689407765059222	-0.6569740066508745	-0.15201560091683675	1.559586812525011	-0.637127966513843	-0.20467334564733072	1.5254334232889937	-0.6479954802366733	-0.3004124880603634	1.4810468002453074	-1.0780230019988541	-0.1392694525395894	1.5483576310154885	-0.6403584983333642	-0.1776821824802646	1.98731853134756	-0.6332489380136623	-0.20884975543890527	2.0634728217449454	-0.652019694968022	-1.7146841625489877	1.889304116144528	1.1099523178851511	-0.20531214430305927	1.8844769744612766	-0.5133244110154939	-0.2553597273582224	1.8203223359941163	-0.4257740215770207	-0.15747438303328493	1.996015429878305	-0.7159985060944595	-1.146721541226412	1.8680811175616374	0.2093804901216829	-0.19269134672599564	2.0127526534938807	-0.7023256418012632
60	2.0	-0.20280308371004457	1.825613824580106	-0.606714855672006	-0.21861148993122542	1.8261970880824254	-0.5466178175377107	-0.21871933050728837	1.6896852590421305	-0.5181605682074054	-0.20966955081789576	1.5599118163677836	-0.47915800237431494	-0.24151813589566756	1.5265173219959016	-0.5045101073755103				-0.1984092778831017	1.5461897412921481	-0.47649526310917445	-0.18787345524083401	1.8277120146203762	-0.664482377539538	-0.17736897588528205	1.6902987494514654	-0.6526185514827969	-0.15387245188591786	1.5607795130673554	-0.6354397452717723	-0.20026668704129166	1.525834601752154	-0.6524465195799857	-0.2957336990917763	1.4803901618351645	-1.0852536646889013	-0.14064984699610864	1.5492350649443138	-0.6394569221215763	-0.18119142837950486	1.9856668989451371	-0.6255276951156169	-0.21010234797142024	2.065919708548229	-0.6469669664836301	-1.7265305322618605	1.8893675005860608	1.1295961050063759	-0.20605745919964208	1.8855111994804699	-0.5054864059527804	-0.2553597273582224	1.8203223359941163	-0.4257740215770207	-0.1620951281578192	1.9956516681584882	-0.7117589349716393	-1.1439280989988887	1.870104311905249	0.20154544538640895	-0.2237911197955775	2.0250879492978875	-0.6891285561581577
61	2.033333333333333	-0.20883932850513068	1.8284323346863154	-0.5916504567711612	-0.21713653982549663	1.825951123083202	-0.5263083368447898	-0.21664771402016567	1.687443004391087	-0.5070284583091258	-0.20966955081789576	1.5599118163677836	-0.47915800237431494	-0.24151813589566756	1.5265173219959016	-0.5045101073755103				-0.1984092778831017	1.5461897412921481	-0.47649526310917445	-0.1942428585380025	1.828694261639776	-0.6495868464911033	-0.17625929703171364	1.6916752591164543	-0.6499579446557165	-0.15296411889083494	1.5637310667180027	-0.6454783943399385	-0.1981528654722781	1.5261324530843088	-0.6546732109987655	-0.29337187095375966	1.478722522364247	-1.0878762904701205	-0.14077498717934214	1.553386291669179	-0.6398613630416428	-0.1854114615024673	1.9886579368370485	-0.6123910429393989	-0.20953178510060466	2.06718895641449	-0.6360071978195269	-1.7560327431963278	1.8897498865717182	1.1823109035488766	-0.20680277409622488	1.8865454244996633	-0.497648400890067	-0.2553597273582224	1.8203223359941163	-0.4257740215770207	-0.17582096785406864	1.9961309172657278	-0.6893929779107516	-1.1518858868442472	1.8776381276281464	0.20944752067670497	-0.25489089286515937	2.0374232451018943	-0.6759314705150523
62	2.066666666666667	-0.2107071282726356	1.83552350385	-0.5729922075828848	-0.21967490162710315	1.8318161006362348	-0.5192719478700674	-0.2157860672598825	1.6941620166883569	-0.5042161608735052	-0.20966955081789576	1.5599118163677836	-0.47915800237431494	-0.24151813589566756	1.5265173219959016	-0.5045101073755103				-0.1984092778831017	1.5461897412921481	-0.47649526310917445	-0.2042684913467031	1.836423530097314	-0.6390262493361052	-0.17629908012021725	1.701410799652716	-0.6550402252321558	-0.14539308238783857	1.5701790982592205	-0.67109513248176	-0.19319734590270696	1.5303898323265572	-0.6550207905375817	-0.286864731524242	1.4822865999699482	-1.0896205739060152	-0.13063687531708285	1.563172163476619	-0.6640140405638887	-0.18921099058563454	1.9954732681503802	-0.6083042046099659	-0.2064567089307298	2.069940942123614	-0.6355194680573282	-1.7777767472836234	1.891994182011899	1.2203261020947704	-0.2075480889928077	1.8875796495188566	-0.48981039582735364	-0.2553597273582224	1.8203223359941163	-0.4257740215770207	-0.18174806767618784	2.004682579055177	-0.6826476222270497	-0.8609749577365069	1.9293014147519212	-0.08479044801075342	-0.28599066593474126	2.049758540905901	-0.6627343848719468
63	2.1	-0.21591457936047603	1.833595272419665	-0.5592344330520765	-0.22156433413199447	1.8297058611049086	-0.495510777785377	-0.21433637595521216	1.6980092647606395	-0.4972179020278583	-0.20966955081789576	1.5599118163677836	-0.47915800237431494	-0.24151813589566756	1.5265173219959016	-0.5045101073755103				-0.1984092778831017	1.5461897412921481	-0.47649526310917445	-0.20923109318780977	1.839209566416247	-0.6223393345669671	-0.1791511689287824	1.7063822228388974	-0.652804686232411	-0.1395542790598558	1.5725517558720454	-0.7071909004052783	-0.28134018921961496	1.4799723531895168	-1.0940997692129846	-0.25655946056325785	1.481809079651549	-1.1025959789717745	-0.12632434193790784	1.5683240467407231	-0.7074549596299325	-0.19102045401727774	1.9993285584481701	-0.595355387160934	-0.20355318249316748	2.0681449232578766	-0.6349500781743878	-0.1931289712869336	1.9938546119328393	-0.5084311281997409	-0.20829340388939047	1.88861387453805	-0.48197239076464027	-0.2553597273582224	1.8203223359941163	-0.4257740215770207	-0.18772224311154778	2.001895744188831	-0.6729733845591357	-0.5700640286287665	1.9809647018756962	-0.3790284166982118	-0.3085694489423025	2.0601337640721797	-0.6787274909024404
64	2.1333333333333333	-0.21985364299074173	1.831081246720128	-0.5544680334816576	-0.22036372063219958	1.8291808835482337	-0.492397155896539	-0.21419641436287723	1.6938016653049284	-0.4879611976818676	-0.20966955081789576	1.5599118163677836	-0.47915800237431494	-0.24151813589566756	1.5265173219959016	-0.5045101073755103				-0.1984092778831017	1.5461897412921481	-0.47649526310917445	-0.21355259205860144	1.8351523061970068	-0.6087507620350502	-0.18245922594708802	1.7075585119581236	-0.6533937368791317	-0.14217288662864214	1.5851636121969344	-0.71376729548849	-0.2688999984018104	1.4759647803450748	-1.085592281652754	-0.24651780694040742	1.4827030496125897	-1.0907906007289994	-0.1282814725351842	1.5787210042450963	-0.7268746618576225	-0.18957510657933782	1.996969585663721	-0.5805848514757378	-0.2036658793407789	2.0645636208179337	-0.6345469214227188	-1.8477140278572126	1.894174198445417	1.3476552363841139	-0.20903871878597327	1.8896480995572433	-0.4741343857019269	-0.2553597273582224	1.8203223359941163	-0.4257740215770207	-0.1939925789796955	1.9996301685204048	-0.6545243219593968	-0.27915309952102607	2.032627988999471	-0.6732663853856702	-0.33114823194986376	2.0705089872384588	-0.6947205969329342
